<svg width="1440" height="1058" viewBox="0 0 1440 1058" fill="none" xmlns="http://www.w3.org/2000/svg">
    <path opacity="0.30385" d="M567.473 981.422C621.503 968.987 646.285 946.708 654.615 917.889C658.993 902.745 658.789 885.905 656.037 867.94C653.285 849.975 647.973 830.814 642.078 811.016C640.798 806.716 639.491 802.387 638.176 798.033C627.362 762.222 616.037 724.718 615.189 688.304C614.24 647.554 626.42 608.217 667.295 574.293C708.555 540.049 731.057 506.626 743.896 474.337C756.727 442.067 759.882 410.983 762.529 381.511C762.634 380.342 762.738 379.176 762.842 378.012C765.363 349.796 767.744 323.136 778.021 298.129C788.7 272.146 807.936 247.888 844.914 225.67C919.142 181.068 960.135 165.099 1009.14 160.222C1033.69 157.781 1060.26 158.119 1094.07 159.072C1099.8 159.233 1105.74 159.412 1111.92 159.599C1142.13 160.51 1177.91 161.59 1222.19 161.59C1275.8 161.59 1317.06 138.998 1351.29 110.848C1368.41 96.7784 1383.78 81.3085 1398.06 66.5725C1400.07 64.4967 1402.06 62.436 1404.03 60.3961C1416.06 47.9383 1427.34 36.2551 1438.34 26.6392C1451.13 15.4458 1463.44 7.14595 1475.95 3.69839C1488.4 0.266618 1501.13 1.62113 1514.87 9.90491C1528.65 18.2155 1543.47 33.514 1559.97 58.0161C1576.46 82.5078 1594.59 116.129 1615.03 161.004C1696.71 340.363 1696.73 545.604 1676.29 706.083C1666.07 786.31 1650.75 855.32 1637.97 904.272C1631.59 928.747 1625.84 948.207 1621.69 961.545C1619.62 968.214 1617.94 973.353 1616.79 976.823C1616.21 978.558 1615.76 979.875 1615.46 980.759C1615.37 981.017 1615.29 981.238 1615.23 981.422H567.473ZM356.398 970.779C374.011 974.936 391.498 978.535 408.756 981.422H-186.51C-186.614 981.327 -186.746 981.205 -186.905 981.056C-187.341 980.644 -187.975 980.025 -188.753 979.207C-190.308 977.569 -192.436 975.134 -194.713 971.959C-199.269 965.605 -204.405 956.307 -206.75 944.513C-211.424 921.01 -205.074 887.246 -159.977 846.768C-148.898 836.823 -133.217 832.113 -113.63 831.501C-94.0457 830.888 -70.6663 834.378 -44.322 840.722C3.86667 852.324 61.7675 873.419 124.175 896.156C130.01 898.281 135.884 900.421 141.792 902.569C210.875 927.68 284.723 953.862 356.398 970.779ZM436.385 983.422H546.567C512.182 988.767 475.051 988.165 436.385 983.422Z" stroke="white" stroke-width="2"/>
    <path opacity="0.30385" d="M574.944 932.5C626.152 921.678 652.995 904.394 666.36 882.563C680.13 860.073 679.508 832.881 676.754 803.356C676.312 798.62 675.815 793.824 675.313 788.975C672.678 763.543 669.895 736.672 674.112 709.587C679.126 677.376 694.048 644.861 730.991 614.221C768.12 583.426 784.849 550.33 791.128 516.751C797.403 483.196 793.235 449.186 788.632 416.586C788.329 414.442 788.025 412.304 787.721 410.173C783.403 379.867 779.279 350.922 783.428 324.715C787.86 296.717 801.74 271.836 835.047 251.837C901.773 211.769 963.688 211.757 1032.97 221.788C1051.7 224.501 1070.98 227.95 1091.04 231.539C1145.14 241.217 1204.9 251.908 1274.95 251.908C1323.1 251.908 1360.13 229.91 1390.85 202.041C1406.22 188.108 1420.01 172.7 1432.84 157.833C1435.64 154.581 1438.4 151.355 1441.12 148.176C1450.84 136.815 1460.04 126.056 1469.03 116.834C1480.54 105.031 1491.65 95.7998 1502.98 91.0743C1514.29 86.3611 1525.82 86.1237 1538.22 92.3409C1550.66 98.5731 1564.01 111.308 1578.86 132.62C1593.7 153.925 1610.03 183.762 1628.43 224.145C1701.98 385.564 1677.14 562.685 1633.87 699.505C1612.24 767.908 1586.01 826.219 1565.18 867.429C1554.77 888.033 1545.71 904.361 1539.25 915.537C1536.02 921.125 1533.45 925.425 1531.68 928.327C1530.79 929.778 1530.11 930.88 1529.65 931.618C1529.42 931.987 1529.24 932.266 1529.12 932.452L1529.09 932.5H574.944ZM564.764 933.5C470.205 951.278 347.801 950.031 232.877 948.861C216.488 948.694 200.252 948.529 184.27 948.42C119.239 947.979 58.4238 948.481 8.76491 953.669C-16.0653 956.262 -38.1215 960.029 -56.5295 965.441C-74.9324 970.851 -89.7245 977.916 -99.9945 987.128C-110.18 996.264 -117.707 1002.25 -123.083 1005.74C-125.773 1007.48 -127.903 1008.59 -129.545 1009.16C-131.208 1009.73 -132.262 1009.72 -132.886 1009.39C-133.47 1009.09 -133.838 1008.43 -133.892 1007.24C-133.945 1006.06 -133.673 1004.47 -133.103 1002.54C-131.968 998.676 -129.697 993.59 -126.776 987.905C-120.937 976.543 -112.55 962.89 -105.617 952.07C-102.151 946.662 -99.0508 941.964 -96.8169 938.619C-95.7001 936.947 -94.7999 935.612 -94.179 934.696C-93.8686 934.238 -93.628 933.884 -93.465 933.646L-93.3656 933.5H564.764Z" stroke="white"/>
    <path opacity="0.30385" d="M1598.95 888.731C1598.91 888.829 1598.87 888.919 1598.83 889H668.91C684.586 881.073 695.108 871.677 702.034 861.057C715.063 841.076 715.187 817 713.41 790.997C713.111 786.634 712.76 782.216 712.404 777.75C710.632 755.499 708.765 732.049 712.952 708.305C717.966 679.869 731.677 651.011 764.818 623.528C831.079 568.58 913.326 577.807 994.443 591.946C1001.7 593.211 1008.95 594.515 1016.17 595.815C1049.27 601.77 1081.9 607.641 1112.76 609.27C1150.37 611.257 1185.51 606.955 1215.84 588.748C1246.25 570.487 1258.92 542.896 1263.55 511.948C1267.42 486.073 1265.69 457.745 1264.03 430.476C1263.71 425.198 1263.39 419.961 1263.11 414.788C1261.4 382.772 1261.37 353.331 1272.38 331.885C1277.86 321.205 1286.09 312.501 1298.27 306.452C1310.47 300.394 1326.7 296.977 1348.19 296.977C1422.62 296.977 1455.36 243.295 1478.61 205.183C1482.54 198.736 1486.2 192.735 1489.75 187.514C1495.92 178.425 1501.63 171.838 1507.7 169.127C1510.69 167.789 1513.77 167.394 1517.06 168.125C1520.38 168.861 1523.98 170.75 1527.97 174.091C1535.97 180.788 1545.34 193.153 1556.87 213.007C1568.39 232.84 1582.02 260.062 1598.58 296.391C1664.73 441.522 1664.74 589.816 1648.19 701.866C1639.92 757.887 1627.51 804.832 1617.17 837.768C1612 854.236 1607.35 867.201 1603.99 876.045C1602.31 880.467 1600.96 883.859 1600.02 886.144C1599.55 887.287 1599.19 888.152 1598.95 888.731ZM-93.2776 892.618C-92.9415 891.912 -92.681 891.368 -92.5042 891H659.852C647.517 896.256 632.372 900.774 613.806 904.441C542.183 918.588 435.065 928.972 324.43 939.698C284.162 943.602 243.429 947.551 203.771 951.743C129.49 959.594 58.995 968.298 2.47496 979.157C-25.7845 984.586 -50.5741 990.558 -70.6077 997.24C-90.6153 1003.91 -105.985 1011.33 -115.313 1019.69C-119.875 1023.78 -123.762 1026.84 -127.04 1028.98C-130.329 1031.13 -132.951 1032.32 -134.99 1032.74C-137.007 1033.17 -138.346 1032.83 -139.26 1032.07C-140.214 1031.27 -140.907 1029.84 -141.246 1027.66C-141.924 1023.3 -141.08 1016.59 -139.106 1008.31C-137.14 1000.08 -134.089 990.42 -130.458 980.228C-123.197 959.847 -113.642 937.401 -105.898 920.041C-102.026 911.363 -98.6094 903.96 -96.1605 898.727C-94.936 896.111 -93.9537 894.037 -93.2776 892.618Z" stroke="white" stroke-width="2"/>
    <path opacity="0.30385" d="M1599.29 888.719C1599.21 889.049 1599.15 889.31 1599.1 889.5H812.892C806.692 876.674 798.668 863.097 790.251 849.073C789.421 847.69 788.587 846.302 787.75 844.91C770.007 815.388 751.159 784.028 744.084 753.383C740.382 737.352 739.91 721.544 744.493 706.316C749.074 691.092 758.72 676.408 775.319 662.643C808.519 635.111 851.62 625.818 899.551 626.28C947.484 626.741 1000.18 636.958 1052.52 648.383C1061.59 650.363 1070.66 652.38 1079.68 654.389C1122.7 663.962 1164.85 673.345 1203.21 677.688C1249.6 682.94 1290.55 680.837 1320.78 662.686C1351.1 644.486 1358.86 614.184 1356.24 579.156C1353.89 547.541 1343.07 511.954 1332.66 477.714C1331.55 474.041 1330.43 470.383 1329.34 466.747C1323.68 447.971 1318.43 429.779 1315.09 413.049C1311.75 396.314 1310.33 381.08 1312.29 368.212C1314.24 355.358 1319.56 344.887 1329.71 337.615C1339.87 330.332 1354.94 326.211 1376.48 326.211C1419.68 326.211 1450.5 323.76 1473.81 321.645C1476.4 321.41 1478.89 321.179 1481.3 320.957C1500.6 319.173 1514.33 317.904 1525.97 319.088C1539.02 320.415 1549.44 324.825 1562.12 335.133C1574.82 345.461 1589.76 361.689 1611.81 386.644C1633.74 411.454 1643.97 455.254 1646.92 507.14C1649.86 558.995 1645.52 618.804 1638.42 675.515C1631.32 732.222 1621.47 785.814 1613.39 825.231C1609.35 844.939 1605.75 861.102 1603.17 872.338C1601.88 877.956 1600.83 882.341 1600.12 885.323C1599.76 886.813 1599.48 887.953 1599.29 888.719ZM-92.8684 890.782C-92.8323 890.674 -92.8007 890.58 -92.7738 890.5H812.263C812.75 891.515 813.226 892.524 813.689 893.529C820.059 907.356 824.057 920.186 823.887 931.67C823.717 943.123 819.403 953.263 809.075 961.756C798.723 970.268 782.305 977.143 757.903 981.962C709.074 991.607 636.034 996.043 552.759 998.296C492.787 999.918 427.529 1000.41 362.211 1000.9C336.841 1001.09 311.461 1001.28 286.379 1001.53C196.73 1002.45 110.88 1004.22 42.8542 1009.87C8.84189 1012.7 -20.7294 1016.49 -44.0989 1021.65C-67.4428 1026.79 -84.6878 1033.31 -93.9632 1041.63C-98.5328 1045.73 -102.515 1048.71 -105.964 1050.7C-109.417 1052.7 -112.31 1053.7 -114.705 1053.86C-117.084 1054.02 -118.983 1053.37 -120.495 1052.03C-122.021 1050.68 -123.191 1048.6 -124.024 1045.86C-125.692 1040.37 -125.958 1032.39 -125.214 1022.86C-124.47 1013.34 -122.724 1002.32 -120.402 990.772C-115.759 967.681 -108.824 942.53 -103.048 923.145C-100.16 913.454 -97.5627 905.207 -95.6873 899.383C-94.7496 896.471 -93.9924 894.165 -93.4697 892.587C-93.2084 891.798 -93.0057 891.191 -92.8684 890.782Z" fill="#00AEEF" stroke="white"/>
</svg>
