<svg width="92" height="218" viewBox="0 0 92 218" fill="none" xmlns="http://www.w3.org/2000/svg">
    <path opacity="0.197266" d="M91 109C91 168.647 42.6467 217 -17 217C-76.6468 217 -125 168.647 -125 109C-125 49.3532 -76.6468 1 -17 1C42.6467 1 91 49.3532 91 109Z" stroke="#333333" stroke-width="2"/>
    <path opacity="0.197266" d="M76.0742 109C76.0742 130.351 63.7554 145.456 45.9325 155.25C28.0958 165.052 4.7919 169.5 -17 169.5C-38.7413 169.5 -53.8411 162.797 -63.5127 151.933C-73.1936 141.059 -77.5 125.943 -77.5 109C-77.5 103.914 -77.9122 98.1547 -78.3476 92.072C-78.6412 87.9697 -78.9454 83.7201 -79.1407 79.4302C-79.6277 68.7366 -79.4471 57.7139 -76.8073 47.7688C-74.1708 37.8362 -69.0857 28.9933 -59.7635 22.6237C-50.4316 16.2475 -36.7992 12.3125 -17 12.3125C22.5946 12.3125 45.8197 25.7653 59.1704 44.5077C72.5442 63.2826 76.0742 87.4537 76.0742 109Z" stroke="#333333"/>
    <path opacity="0.197266" d="M60.5 98.0265C60.5 115.123 50.685 127.222 36.4653 135.072C22.2315 142.931 3.62792 146.5 -13.7741 146.5C-31.1251 146.5 -43.1607 141.127 -50.8661 132.431C-58.5809 123.724 -62.0185 111.614 -62.0185 98.0265C-62.0185 93.9406 -62.3483 89.31 -62.6964 84.4228C-62.931 81.1297 -63.1739 77.7201 -63.3297 74.2822C-63.7187 65.6994 -63.5738 56.8618 -61.4682 48.892C-59.3658 40.9346 -55.3136 33.8577 -47.8884 28.7605C-40.4537 23.6568 -29.5828 20.5 -13.7741 20.5C17.8392 20.5 36.3642 31.2896 47.0103 46.3055C57.6797 61.3542 60.5 80.7354 60.5 98.0265Z" stroke="#333333"/>
</svg>
