<svg width="368" height="450" viewBox="0 0 368 450" fill="none" xmlns="http://www.w3.org/2000/svg">
<path opacity="0.30385" d="M89.5463 -125.5C144.266 -125.5 190.494 -111.766 227.263 -85.0514C264.033 -58.3371 291.38 -18.6151 308.289 33.4261C316.728 59.398 314.053 76.4271 304.09 88.4391C294.084 100.502 276.641 107.628 255.228 113.541C245.405 116.253 234.774 118.703 223.676 121.261C222.691 121.489 221.702 121.716 220.709 121.946C208.543 124.754 195.862 127.728 183.133 131.34C157.675 138.564 131.99 148.349 109.752 164.506C87.5426 180.642 65.1038 203.133 42.5728 226.757C37.9593 231.594 33.3419 236.478 28.7215 241.366C10.7654 260.362 -7.23691 279.406 -25.2407 295.906C-47.8806 316.656 -70.4698 333.331 -92.8987 340.814C-115.292 348.286 -137.532 346.599 -159.558 330.595C-181.619 314.568 -192.865 294.537 -196.817 271.873C-200.773 249.189 -197.424 223.841 -190.234 197.198C-183.046 170.557 -172.03 142.665 -160.684 114.899C-159.216 111.306 -157.743 107.715 -156.271 104.13C-146.375 80.0154 -136.575 56.1331 -129.197 33.4261C-112.287 -18.6151 -84.94 -58.3371 -48.1708 -85.0514C-11.4017 -111.766 34.827 -125.5 89.5463 -125.5Z" stroke="white"/>
<path opacity="1.0" d="M89.1808 -125C143.91 -125 177.585 -116.443 201.822 -95.0971C226.107 -73.7082 241.09 -39.3416 258.031 12.7973C266.467 38.7637 266.583 56.3493 260.874 69.1776C255.168 81.9986 243.538 90.3108 227.87 97.4794C218.271 101.871 207.285 105.783 195.336 110.037C187.727 112.747 179.727 115.595 171.447 118.795C150.232 126.993 127.36 137.439 105.093 153.617C83.6689 169.182 61.9827 188.478 40.2031 207.856C39.3967 208.573 38.5902 209.291 37.7836 210.008C15.1722 230.122 -7.53603 250.182 -30.2321 266.216C-52.9336 282.254 -75.5406 294.203 -97.9328 298.166C-120.277 302.12 -142.46 298.134 -164.403 282.191C-186.417 266.197 -197.253 249.254 -200.721 231.27C-204.196 213.247 -200.302 194.024 -192.534 173.42C-185.849 155.689 -176.337 137.037 -166.291 117.338C-164.66 114.14 -163.016 110.915 -161.367 107.662C-149.572 84.3931 -137.58 59.7215 -129.087 33.5806C-112.204 -18.3794 -84.9111 -58.0056 -48.2425 -84.6469C-11.5738 -111.288 34.5468 -125 89.1808 -125Z" fill="white" stroke="white" stroke-width="2"/>
<path opacity="0.30385" d="M118.344 -158.027C172.808 -158.027 225.521 -130.248 268.888 -89.3777C312.248 -48.5129 346.167 5.35121 363.049 57.309C367.247 70.2301 367.926 80.5544 365.836 88.8812C363.753 97.1843 358.89 103.607 351.793 108.696C337.512 118.936 314.312 123.696 286.999 127.231C277.872 128.412 268.294 129.456 258.466 130.527C239.003 132.648 218.563 134.875 198.722 138.487C168.838 143.926 140.107 152.534 117.756 168.773C95.4394 184.987 72.1243 214.071 48.3649 247.433C37.0966 263.256 25.7099 280.068 14.2683 296.962L12.3742 299.758C0.292343 317.595 -11.8475 335.466 -23.9854 352.33C-48.2792 386.081 -72.4938 415.687 -96.1148 432.845C-107.917 441.418 -119.504 446.833 -130.823 448.15C-142.109 449.462 -153.21 446.711 -164.104 438.796C-185.948 422.925 -196.916 396.321 -200.456 363.488C-203.994 330.662 -200.087 291.768 -192.338 251.559C-179.447 184.674 -155.972 114.35 -138.683 62.5611C-135.185 52.0813 -131.939 42.3605 -129.087 33.5806C-95.3272 -70.3205 9.23567 -158.027 118.344 -158.027Z" stroke="white" stroke-width="2"/>
</svg>
