<svg width="218" height="436" viewBox="0 0 218 436" fill="none" xmlns="http://www.w3.org/2000/svg">
    <path opacity="0.197266" d="M217 218C217 337.846 119.846 435 0 435C-119.846 435 -217 337.846 -217 218C-217 98.1542 -119.846 1 0 1C119.846 1 217 98.1542 217 218Z" stroke="#333333" stroke-width="2"/>
    <path opacity="0.197266" d="M211.5 218.5C211.5 314.598 133.598 392.5 37.5 392.5C-58.5975 392.5 -136.5 314.598 -136.5 218.5C-136.5 122.402 -58.5975 44.5 37.5 44.5C133.598 44.5 211.5 122.402 211.5 218.5Z" stroke="#333333"/>
    <path opacity="0.197266" d="M204.824 218.5C204.824 314.623 133.572 392.5 37.5 392.5C-58.5975 392.5 -136.5 314.598 -136.5 218.5C-136.5 170.463 -117.036 133.478 -85.5791 108.492C-54.1094 83.4946 -10.6025 70.4805 37.5 70.4805C85.6017 70.4805 127.434 83.494 157.231 108.483C187.017 133.463 204.824 170.448 204.824 218.5Z" stroke="#333333"/>
</svg>
