<svg width="48" height="40" viewBox="0 0 48 40" fill="none" xmlns="http://www.w3.org/2000/svg">
    <path fill-rule="evenodd" clip-rule="evenodd" d="M47.6096 13.0501C47.1677 12.351 46.2366 12.1384 45.5299 12.5754L30.4087 21.9258V16.6482C30.4087 14.8599 29.1497 13.2587 26.8467 12.0913L39.7522 2.72775C40.4242 2.23994 40.5695 1.30576 40.0768 0.640742C39.5834 -0.0245969 38.639 -0.168183 37.9672 0.319467L23.4224 10.8725C21.6743 10.4517 19.7183 10.2278 17.6943 10.2278C14.4949 10.2278 11.4632 10.7859 9.15835 11.7996C6.46375 12.9843 4.98026 14.7061 4.98026 16.6481V24.2532L0.616765 27.4191C-0.0553956 27.9069 -0.200684 28.8412 0.292202 29.5062C0.587933 29.9051 1.04603 30.1164 1.5104 30.1164C1.82015 30.1164 2.13263 30.0223 2.40162 29.8274L4.98009 27.9566V28.6234C4.98009 30.5652 6.46375 32.287 9.15803 33.4718C9.66235 33.6935 10.2029 33.8921 10.771 34.069L5.6893 37.2114C4.98251 37.6485 4.76764 38.5697 5.2093 39.2689C5.49569 39.7222 5.98745 39.9708 6.49064 39.9708C6.76366 39.9708 7.04039 39.8975 7.28893 39.7437L15.0955 34.9164C15.9415 34.9995 16.811 35.0434 17.6943 35.0434C20.8937 35.0434 23.9253 34.4852 26.2306 33.4718C28.9248 32.287 30.4085 30.5652 30.4085 28.6234V25.4476L47.1294 15.108C47.8362 14.6705 48.0511 13.7496 47.6096 13.0501ZM17.6943 13.2141C23.5232 13.2141 27.3903 15.2811 27.3903 16.6482C27.3903 18.0152 23.5231 20.0823 17.6943 20.0823C11.8655 20.0823 7.9983 18.0152 7.9983 16.6482C7.9983 15.2809 11.8655 13.2141 17.6943 13.2141ZM7.9983 20.9105V28.6231C7.9983 29.7123 10.4555 31.245 14.4026 31.8232L27.3903 23.792V20.9105C27.033 21.1179 26.6465 21.3137 26.2306 21.4964C23.9253 22.5099 20.8937 23.0682 17.6943 23.0682C14.4949 23.0682 11.4635 22.5099 9.15819 21.4964C8.7423 21.3136 8.35556 21.1179 7.9983 20.9105ZM27.3903 28.6231C27.3903 29.8106 24.4708 31.5257 19.8833 31.9556L27.3903 27.3136V28.6231ZM17.6943 18.8267C16.7546 18.8267 15.855 18.7427 15.1614 18.5904C13.4299 18.2097 13.0663 17.3241 13.0663 16.6482C13.0663 15.9722 13.4297 15.0866 15.1614 14.7058C15.855 14.5533 16.7544 14.4694 17.6943 14.4694C18.6343 14.4694 19.5338 14.5533 20.2272 14.7058C21.9589 15.0865 22.3224 15.9722 22.3224 16.6482C22.3224 17.3241 21.9587 18.2097 20.2272 18.5904C19.5338 18.7427 18.6342 18.8267 17.6943 18.8267Z" fill="#555555"/>
</svg>
