<svg width="47" height="28" viewBox="0 0 47 28" fill="none" xmlns="http://www.w3.org/2000/svg">
    <path fill-rule="evenodd" clip-rule="evenodd" d="M30.5237 24.6642H44.3887C45.2627 24.6642 45.9712 25.3888 45.9712 26.2825C45.9712 27.1763 45.2627 27.901 44.3887 27.901H2.61095C1.7371 27.901 1.02846 27.1763 1.02846 26.2825C1.02846 25.3888 1.7371 24.664 2.61095 24.664H16.4761C6.93843 21.6012 0 12.4729 0 1.71713C0 0.823234 0.708482 0.0986328 1.58249 0.0986328H45.4175C46.2914 0.0986328 47 0.823396 47 1.71713C47 12.4729 40.0614 21.6013 30.5237 24.6642ZM23.4998 16.6525C30.9057 16.6525 36.9945 10.7726 37.5422 3.33563H9.4576C10.0053 10.7726 16.0941 16.6525 23.4998 16.6525ZM3.22591 3.33563H6.28645C6.84 12.5588 14.3483 19.8895 23.4998 19.8895C32.6514 19.8895 40.1597 12.559 40.7136 3.33563H43.7741C42.964 14.0549 34.1802 22.5244 23.4998 22.5244C12.8196 22.5244 4.03599 14.0551 3.22591 3.33563ZM17.249 6.80552C17.249 7.69926 16.5404 8.42402 15.6665 8.42402C14.7927 8.42402 14.084 7.69926 14.084 6.80536V5.70187C14.084 4.80814 14.7927 4.08337 15.6665 4.08337C16.5404 4.08337 17.249 4.80814 17.249 5.70187V6.80552ZM25.0823 6.80552C25.0823 7.69926 24.3739 8.42402 23.4998 8.42402C22.626 8.42402 21.9174 7.69926 21.9174 6.80536V5.70187C21.9174 4.80814 22.626 4.08337 23.4998 4.08337C24.3739 4.08337 25.0823 4.80814 25.0823 5.70187V6.80552ZM31.3332 8.42402C32.2072 8.42402 32.9157 7.69926 32.9157 6.80552V5.70187C32.9157 4.80814 32.2072 4.08337 31.3332 4.08337C30.4593 4.08337 29.7507 4.80814 29.7507 5.70187V6.80536C29.7507 7.69926 30.4593 8.42402 31.3332 8.42402ZM28.999 11.363C28.999 12.2569 28.2905 12.9815 27.4165 12.9815C26.5427 12.9815 25.834 12.2568 25.834 11.363V10.2596C25.834 9.36582 26.5427 8.64106 27.4165 8.64106C28.2905 8.64106 28.999 9.36582 28.999 10.2596V11.363ZM19.5832 12.9815C20.457 12.9815 21.1657 12.2569 21.1657 11.363V10.2596C21.1657 9.36582 20.4572 8.64106 19.5832 8.64106C18.7093 8.64106 18.0007 9.36582 18.0007 10.2596V11.363C18.0007 12.2568 18.7093 12.9815 19.5832 12.9815Z" fill="#555555"/>
</svg>
