<svg width="13" height="19" viewBox="0 0 13 19" fill="none" xmlns="http://www.w3.org/2000/svg">
    <path fill-rule="evenodd" clip-rule="evenodd" d="M6.5 0C2.91992 0 0 2.87164 0 6.39252C0 7.39136 0.411893 8.53724 0.970486 9.78855C1.52908 11.0399 2.24848 12.3689 2.97917 13.6063C4.44054 16.084 5.91319 18.1565 5.91319 18.1565L6.5 19L7.08681 18.1565C7.08681 18.1565 8.55946 16.084 10.0208 13.6063C10.7515 12.3689 11.4709 11.0399 12.0295 9.78855C12.5881 8.53724 13 7.39136 13 6.39252C13 2.87164 10.0801 0 6.5 0ZM6.5 1.42056C9.30143 1.42056 11.5556 3.63741 11.5556 6.39252C11.5556 6.9613 11.2452 8.03782 10.7205 9.21145C10.1957 10.3851 9.4707 11.6863 8.75694 12.896C7.65392 14.7688 6.95652 15.7833 6.53499 16.3965L6.5 16.4474L6.46502 16.3965L6.46501 16.3965C6.04348 15.7833 5.34608 14.7688 4.24306 12.896C3.5293 11.6863 2.80425 10.3851 2.27951 9.21145C1.75477 8.03782 1.44444 6.9613 1.44444 6.39252C1.44444 3.63741 3.69857 1.42056 6.5 1.42056ZM5.05556 6.39252C5.05556 5.60733 5.70161 4.97196 6.5 4.97196C7.29839 4.97196 7.94444 5.60733 7.94444 6.39252C7.94444 7.17772 7.29839 7.81308 6.5 7.81308C5.70161 7.81308 5.05556 7.17772 5.05556 6.39252Z" fill="#9B9B9B"/>
</svg>
