<svg width="46" height="47" viewBox="0 0 46 47" fill="none" xmlns="http://www.w3.org/2000/svg">
    <path fill-rule="evenodd" clip-rule="evenodd" d="M29.1606 5.59126H44.2234C45.158 5.59126 45.9156 6.34991 45.9153 7.28547C45.9153 8.2212 45.1577 8.97985 44.2231 8.97985H29.1603V14.7632C30.3585 14.2582 31.6734 13.978 33.0529 13.978C38.5588 13.978 43.0439 18.4248 43.1194 23.9189C43.4637 24.2289 43.6814 24.6772 43.6814 25.1771C43.6814 37.2104 33.9027 46.9998 21.8831 46.9998C9.86319 46.9998 0.0844727 37.2104 0.0844727 25.1771C0.0844727 24.6772 0.302143 24.2289 0.646431 23.9189C0.721834 18.4249 5.20723 13.978 10.713 13.978C12.0928 13.978 13.4074 14.2595 14.6056 14.7651V8.97985H13.5056C12.571 8.97985 11.8131 8.2212 11.8131 7.28547C11.8131 6.34991 12.571 5.59126 13.5056 5.59126H14.6056V3.38859H13.5056C12.571 3.38859 11.8131 2.62994 11.8131 1.69422C11.8131 0.758646 12.571 0 13.5056 0H44.2234C45.158 0 45.9156 0.758646 45.9156 1.69422C45.9156 2.62994 45.158 3.38859 44.2234 3.38859H29.1606V5.59126ZM23.5755 5.59126H25.7759V3.38859H23.5755V5.59126ZM17.9906 3.38859H20.1907V5.59126H17.9906V3.38859ZM20.1906 13.0114V8.97985H17.9905V13.6107C18.6914 13.3368 19.4274 13.1329 20.1906 13.0114ZM32.6198 23.4831C32.6179 23.3399 32.6152 23.1966 32.6077 23.0548C32.7442 22.9938 32.8943 22.9578 33.0532 22.9578C33.4487 22.9578 33.795 23.1686 33.989 23.4831H32.6198ZM26.5855 23.4831H29.2346C29.1565 19.49 25.8897 16.2653 21.8833 16.2655C17.8764 16.2655 14.6096 19.4901 14.5315 23.4831H17.18C17.2964 20.9867 19.3613 18.9915 21.8831 18.9915C24.4049 18.9915 26.4692 20.9868 26.5855 23.4831ZM23.1864 23.4831H20.5798C20.6857 22.858 21.229 22.3801 21.8833 22.3801C22.5371 22.3801 23.0802 22.8578 23.1864 23.4831ZM9.77719 23.4831H11.1464C11.1485 23.3391 11.151 23.1955 11.1585 23.0533C11.0224 22.9925 10.8717 22.9578 10.713 22.9578C10.3175 22.9578 9.97115 23.1686 9.77719 23.4831ZM10.713 17.3666C11.4805 17.3666 12.2163 17.5011 12.9031 17.7408C12.4959 18.3612 12.1516 19.0258 11.8782 19.7264C11.5064 19.6257 11.1166 19.5691 10.713 19.5691C8.43513 19.5691 6.54961 21.2785 6.26618 23.4829H4.05423C4.3473 20.0616 7.2208 17.3666 10.713 17.3666ZM3.54649 26.8717C4.40389 36.2446 12.3006 43.6114 21.8833 43.6114C31.4656 43.6114 39.3623 36.2446 40.2197 26.8717H3.54649ZM39.7118 23.4831H37.5C37.2163 21.2785 35.3314 19.5692 33.0532 19.5692C32.6496 19.5692 32.2592 19.6237 31.8871 19.7242C31.6133 19.0234 31.269 18.3585 30.8615 17.7383C31.5485 17.4981 32.2854 17.3666 33.0532 17.3666C36.5454 17.3666 39.4187 20.0616 39.7118 23.4831ZM23.5755 13.0114C24.3386 13.1328 25.0746 13.3368 25.7759 13.6107V8.97985H23.5755V13.0114Z" fill="#555555"/>
</svg>
