<svg width="22" height="26" viewBox="0 0 22 26" fill="none" xmlns="http://www.w3.org/2000/svg">
    <path fill-rule="evenodd" clip-rule="evenodd" d="M1.75 0.000152248C1.70781 -0.00428805 1.66815 0.00515341 1.62743 0.0148478C1.59651 0.0222092 1.56497 0.0297164 1.53125 0.0314022C1.50339 0.0330407 1.4776 0.0312426 1.45214 0.0294676C1.4169 0.0270111 1.3823 0.024599 1.34375 0.0314022H1.3125H1.21875C1.10938 0.0548402 1.00391 0.0978082 0.90625 0.156402C0.800781 0.21109 0.703125 0.285308 0.625 0.375152C0.234375 0.703277 0 1.21109 0 1.68765V24.4689C0 24.9611 0.21875 25.5548 0.75 25.8439C0.771211 25.8545 0.794725 25.8582 0.818042 25.8619C0.837665 25.865 0.857149 25.868 0.875 25.8752C0.90625 25.8869 0.9375 25.8986 0.96875 25.9064C1.44531 26.0666 1.94141 25.9728 2.3125 25.7502H2.34375C2.77344 25.4884 11.75 20.0002 11.75 20.0002L16.5312 17.1252C16.5312 17.1252 20.5859 14.672 21.125 14.3439C21.582 14.0666 22.0078 13.5392 22 12.9064C21.9922 12.2736 21.5547 11.8048 21.125 11.5627C20.9883 11.4845 19.7852 10.7619 18.6875 10.0939C17.8594 9.58905 17.1114 9.13756 16.7875 8.94211L16.7872 8.94188L16.625 8.8439C16.5938 8.82047 16.5625 8.80093 16.5312 8.7814L11.75 5.87515C11.75 5.87515 3.05078 0.597808 2.53125 0.281402C2.30078 0.144683 2.02734 0.0314022 1.75 0.000152248ZM2 3.0939L11.4375 12.9377L2 22.7814V3.0939ZM10.7188 7.5939C10.7188 7.5939 8.57812 6.28922 6.8125 5.2189L12.8125 11.5002L14.4062 9.8439L10.7188 7.5939ZM16.1562 10.9064C16.3444 11.0216 16.525 11.1302 16.7509 11.266C16.9846 11.4065 17.2669 11.5763 17.6562 11.8127C18.1641 12.1212 18.5783 12.3619 18.9347 12.5691L18.9348 12.5692C19.1649 12.703 19.3709 12.8227 19.5625 12.9377C19.0405 13.2531 18.2519 13.7365 17.5373 14.1746L17.5367 14.175C16.9949 14.5072 16.4957 14.8132 16.1875 15.0002L14.2188 12.9377L16.1562 10.9064ZM14.4062 16.0627L12.8125 14.4064L6.78125 20.6877C8.52734 19.6291 10.7188 18.3127 10.7188 18.3127L14.4062 16.0627Z" fill="white"/>
</svg>
