<svg width="47" height="34" viewBox="0 0 47 34" fill="none" xmlns="http://www.w3.org/2000/svg">
    <path fill-rule="evenodd" clip-rule="evenodd" d="M44.1618 12.385C45.8301 13.0495 47 14.5724 47 16.3414C47 17.3825 46.5949 18.3385 45.9214 19.0843C46.5949 19.8302 47 20.7865 47 21.8277C47 23.4418 46.0255 24.8512 44.5873 25.59V28.3671C44.5873 31.4078 42.1144 33.8819 39.0747 33.8819H7.92528C4.88563 33.8819 2.41267 31.4079 2.41267 28.3671V25.59C0.974498 24.8512 0 23.4418 0 21.8277C0 20.7865 0.405118 19.8302 1.07863 19.0844C0.405118 18.3385 0 17.3825 0 16.3414C0 14.5724 1.17009 13.0492 2.83804 12.385C2.50366 11.8624 2.49844 11.1691 2.87982 10.6322C7.55671 4.04822 15.2653 0.117188 23.5 0.117188C31.7342 0.117188 39.4425 4.04775 44.1199 10.6319C44.5016 11.1688 44.496 11.8627 44.1618 12.385ZM42.2905 23.002C43.1267 23.002 43.8603 22.4531 43.8603 21.8277C43.8603 21.2019 43.1267 20.6532 42.2905 20.653H25.5329L23.1822 23.002H42.2905ZM15.8162 25.9257L10.5402 20.653L21.0924 20.6533L15.8162 25.9257ZM3.13966 21.8277C3.13966 22.4531 3.87331 23.002 4.70949 23.002H8.4505L6.09987 20.653H4.70949C3.87331 20.653 3.13966 21.2019 3.13966 21.8277ZM4.70949 17.5157C3.87331 17.5157 3.13966 16.9671 3.13966 16.3414C3.13966 15.7156 3.87331 15.1667 4.70949 15.1667H42.2905C43.1267 15.1667 43.8603 15.7156 43.8603 16.3414C43.8603 16.9671 43.1267 17.5157 42.2905 17.5157H4.70949ZM41.2524 12.0292C37.137 6.52563 30.5416 3.25468 23.5002 3.25468C16.4582 3.25468 9.86272 6.52595 5.74745 12.0292H41.2524ZM7.92528 30.7444C6.61687 30.7444 5.55233 29.6782 5.55233 28.3671V26.1395H11.5902L14.7063 29.2534C15.0129 29.5599 15.4146 29.713 15.8164 29.713C16.218 29.713 16.6198 29.5598 16.9265 29.2534L20.0427 26.1395H41.4478V28.3671C41.4477 29.6782 40.383 30.7444 39.0747 30.7444H7.92528ZM24.3332 9.56223C24.1134 9.78189 23.8103 9.90729 23.4995 9.90729C23.1901 9.90729 22.8873 9.78189 22.6674 9.56223C22.4476 9.34226 22.3222 9.03958 22.3222 8.73073C22.3222 8.41999 22.4476 8.11731 22.6674 7.89765C22.8873 7.67958 23.1901 7.55417 23.4995 7.55417C23.8103 7.55417 24.1134 7.67958 24.3332 7.89765C24.5514 8.11731 24.6771 8.41999 24.6771 8.73073C24.6771 9.03958 24.5514 9.34226 24.3332 9.56223ZM20.0413 6.32448C20.3521 6.32448 20.6552 6.19876 20.8732 5.9791C21.0932 5.75945 21.2187 5.45677 21.2187 5.14761C21.2187 4.83686 21.0932 4.53418 20.8732 4.31453C20.6552 4.09645 20.3521 3.97105 20.0413 3.97105C19.7303 3.97105 19.4275 4.09645 19.2092 4.31453C18.9894 4.53418 18.8638 4.83686 18.8638 5.14761C18.8638 5.45677 18.9894 5.75945 19.2092 5.9791C19.4275 6.19876 19.7303 6.32448 20.0413 6.32448ZM27.7916 5.9791C27.5718 6.19876 27.2687 6.32448 26.9579 6.32448C26.6485 6.32448 26.3455 6.19876 26.1258 5.9791C25.906 5.75945 25.7804 5.45677 25.7804 5.14761C25.7804 4.83686 25.906 4.53418 26.1258 4.31453C26.3456 4.09645 26.6487 3.97105 26.9579 3.97105C27.2687 3.97105 27.5718 4.09645 27.7916 4.31453C28.0098 4.53418 28.137 4.83686 28.137 5.14761C28.137 5.45677 28.0098 5.75945 27.7916 5.9791ZM13.123 9.90729C13.4339 9.90729 13.7368 9.78189 13.9566 9.56223C14.1749 9.34226 14.3003 9.03958 14.3003 8.73073C14.3003 8.41999 14.1749 8.11731 13.9566 7.89765C13.7368 7.67958 13.4339 7.55417 13.123 7.55417C12.8138 7.55417 12.5109 7.67958 12.2909 7.89765C12.0712 8.11731 11.9454 8.41999 11.9454 8.73073C11.9454 9.03958 12.0712 9.34226 12.2909 9.56223C12.5109 9.78189 12.8138 9.90729 13.123 9.90729ZM34.7097 9.56223C34.4898 9.78189 34.1869 9.90729 33.8759 9.90729C33.5667 9.90729 33.2638 9.78189 33.044 9.56223C32.824 9.34416 32.6985 9.03958 32.6985 8.73073C32.6985 8.41999 32.824 8.11731 33.044 7.89765C33.2638 7.67958 33.5665 7.55417 33.8759 7.55417C34.1853 7.55417 34.4898 7.67958 34.7097 7.89765C34.9278 8.11731 35.0535 8.41999 35.0535 8.73073C35.0535 9.03958 34.9278 9.34226 34.7097 9.56223Z" fill="#555555"/>
</svg>
