<svg width="47" height="38" viewBox="0 0 47 38" fill="none" xmlns="http://www.w3.org/2000/svg">
    <path fill-rule="evenodd" clip-rule="evenodd" d="M45.5174 27.4127H43.3305V11.5643C43.3305 10.7347 42.6667 10.0621 41.8479 10.0621H37.2147V1.64966C37.2147 0.820077 36.5508 0.147461 35.732 0.147461H11.2681C10.4494 0.147461 9.78549 0.820077 9.78549 1.64966V10.0621H5.15228C4.3335 10.0621 3.66964 10.7347 3.66964 11.5643V27.4127H1.48264C0.663697 27.4127 0 28.0853 0 28.9149C0 29.7445 0.663697 30.4171 1.48264 30.4171H22.0174V34.8487H18.6073C17.7885 34.8487 17.1246 35.5213 17.1246 36.3509C17.1246 37.1805 17.7885 37.8531 18.6073 37.8531H28.3927C29.2115 37.8531 29.8754 37.1805 29.8754 36.3509C29.8754 35.5213 29.2115 34.8487 28.3927 34.8487H24.9826V30.4171H45.5174C46.3361 30.4171 47 29.7445 47 28.9149C47 28.0853 46.3361 27.4127 45.5174 27.4127ZM12.7508 3.15187H34.2492V10.0621H12.7508V3.15187ZM40.3651 15.0441V13.0665H6.63507V15.0441C6.93163 15.0985 7.2092 15.2424 7.42315 15.4595C7.70056 15.739 7.8577 16.1265 7.8577 16.5216C7.8577 16.9167 7.70056 17.3042 7.42315 17.5835C7.20952 17.8005 6.93116 17.9446 6.63507 17.999V21.4645C7.22566 21.3957 7.55845 21.0723 8.16186 20.4372C8.94867 19.6088 10.0264 18.4745 12.0842 18.4745C14.1423 18.4745 15.2198 19.6088 16.0066 20.4371C16.6931 21.1595 17.0287 21.4789 17.7929 21.4789C18.5569 21.4789 18.8926 21.1595 19.5787 20.4372L19.5788 20.4372C20.3656 19.6089 21.4431 18.4745 23.5009 18.4745C25.5584 18.4745 26.6359 19.6086 27.4228 20.4369L27.4232 20.4372C28.1093 21.1595 28.4448 21.4789 29.2088 21.4789C29.9729 21.4789 30.3084 21.1595 30.9945 20.4372C31.7813 19.6089 32.859 18.4745 34.9167 18.4745C36.9744 18.4745 38.0517 19.6087 38.8385 20.437L38.8388 20.4372C39.442 21.0723 39.7747 21.3956 40.3651 21.4645V17.9991C40.0692 17.9448 39.7911 17.8006 39.5759 17.5835C39.3001 17.3042 39.1415 16.9167 39.1415 16.5216C39.1415 16.1265 39.3001 15.739 39.5759 15.4595C39.79 15.2424 40.0687 15.0983 40.3651 15.0441ZM6.63491 24.4745C8.52377 24.3831 9.54527 23.3132 10.2979 22.5206C10.9844 21.7983 11.3199 21.4789 12.0841 21.4789C12.8482 21.4789 13.1839 21.7983 13.8701 22.5206C14.657 23.3489 15.7349 24.4833 17.7927 24.4833C19.8506 24.4833 20.9285 23.3489 21.7151 22.5206C22.4013 21.7983 22.7369 21.4789 23.5008 21.4789C24.2647 21.4789 24.6003 21.7983 25.2865 22.5206L25.287 22.5212C26.0739 23.3494 27.1512 24.4833 29.2087 24.4833C31.2665 24.4833 32.344 23.349 33.1308 22.5207L33.1309 22.5206C33.8171 21.7983 34.1527 21.4789 34.9166 21.4789C35.6804 21.4789 36.0159 21.7983 36.7021 22.5206C37.4549 23.3129 38.4762 24.383 40.3649 24.4745V27.4127H6.63491V24.4745ZM18.8396 17.5835C18.5639 17.863 18.1814 18.0238 17.7915 18.0238C17.4014 18.0238 17.0203 17.863 16.7431 17.5835C16.4672 17.3042 16.3088 16.9167 16.3088 16.5216C16.3088 16.1265 16.4672 15.739 16.7431 15.4595C17.0189 15.1801 17.4014 15.0194 17.7915 15.0194C18.1828 15.0194 18.5639 15.1801 18.8396 15.4595C19.1168 15.739 19.274 16.1265 19.274 16.5216C19.274 16.9167 19.1168 17.3042 18.8396 17.5835ZM29.2077 18.0238C29.5977 18.0238 29.9801 17.863 30.2558 17.5835C30.5331 17.3042 30.6904 16.9167 30.6904 16.5216C30.6904 16.1265 30.5331 15.739 30.2558 15.4595C29.9801 15.1801 29.5991 15.0194 29.2077 15.0194C28.8178 15.0194 28.4352 15.1801 28.1595 15.4595C27.8837 15.739 27.7251 16.1265 27.7251 16.5216C27.7251 16.9167 27.8837 17.3042 28.1595 17.5835C28.4352 17.863 28.8178 18.0238 29.2077 18.0238ZM15.1122 5.5449C15.388 5.26544 15.7705 5.10478 16.1604 5.10478C16.5503 5.10478 16.933 5.26544 17.2085 5.5449C17.4859 5.82437 17.643 6.21191 17.643 6.60698C17.643 7.00205 17.4859 7.38959 17.2085 7.6689C16.933 7.94836 16.5519 8.10918 16.1604 8.10918C15.7705 8.10918 15.388 7.94836 15.1122 7.6689C14.8363 7.38959 14.6778 7.00205 14.6778 6.60698C14.6778 6.21191 14.8363 5.82437 15.1122 5.5449ZM23.4995 5.10478C23.1096 5.10478 22.7271 5.26544 22.4513 5.5449C22.1755 5.82437 22.0169 6.21191 22.0169 6.60698C22.0169 7.00205 22.1755 7.38959 22.4513 7.6689C22.7271 7.94836 23.1096 8.10918 23.4995 8.10918C23.891 8.10918 24.2721 7.94836 24.5476 7.6689C24.825 7.38959 24.9822 7.00205 24.9822 6.60698C24.9822 6.21191 24.825 5.82437 24.5476 5.5449C24.2721 5.26544 23.8895 5.10478 23.4995 5.10478ZM29.7904 5.5449C30.0662 5.26544 30.4487 5.10478 30.8386 5.10478C31.2302 5.10478 31.6112 5.26544 31.8867 5.5449C32.1641 5.82437 32.3213 6.21191 32.3213 6.60698C32.3213 7.00205 32.1626 7.38959 31.8867 7.6689C31.6112 7.94836 31.2302 8.10918 30.8386 8.10918C30.4487 8.10918 30.0662 7.94836 29.7904 7.6689C29.5146 7.38959 29.356 7.00205 29.356 6.60698C29.356 6.21191 29.5146 5.82437 29.7904 5.5449Z" fill="#555555"/>
</svg>
