<svg width="28" height="20" viewBox="0 0 28 20" fill="none" xmlns="http://www.w3.org/2000/svg">
    <path fill-rule="evenodd" clip-rule="evenodd" d="M3 0C1.355 0 0 1.355 0 3V17C0 18.645 1.355 20 3 20H25C26.645 20 28 18.645 28 17V3C28 1.355 26.645 0 25 0H3ZM3 2H25C25.566 2 26 2.434 26 3V17C26 17.566 25.566 18 25 18H3C2.434 18 2 17.566 2 17V3C2 2.434 2.434 2 3 2ZM7.6582 5.65234C8.0022 5.26534 8.53305 5 8.99805 5C9.02005 5.509 8.832 6.00733 8.5 6.36133C8.201 6.74933 7.68012 7.04819 7.20312 6.99219C7.10312 6.48319 7.3922 5.97334 7.6582 5.65234ZM11 7V13H11.9316V10.9453H13.2285C14.4035 10.9453 15.2344 10.1367 15.2344 8.97266C15.2344 7.79766 14.414 7 13.25 7H11ZM4 9.73828C4 8.43328 4.79889 7.52344 5.83789 7.52344C6.10579 7.52344 6.35958 7.62467 6.58268 7.71365C6.75765 7.78344 6.91374 7.8457 7.04297 7.8457C7.15942 7.8457 7.31549 7.7919 7.50009 7.72826L7.5001 7.72826C7.76727 7.63615 8.09421 7.52344 8.44727 7.52344C8.70427 7.52344 9.38441 7.59723 9.81641 8.24023C9.77941 8.25823 8.99805 8.68291 8.99805 9.62891C8.99707 10.5793 9.812 10.9862 9.98808 11.0741L10 11.0801C9.972 11.1901 9.2367 13 8.3457 13C8.12064 13 7.96366 12.9303 7.80036 12.8578C7.62336 12.7792 7.43894 12.6973 7.15234 12.6973C6.83212 12.6973 6.6361 12.7841 6.45398 12.8647C6.296 12.9347 6.14849 13 5.93945 13C5.19445 13 4 11.4383 4 9.73828ZM11.9316 7.78711H13.0059C13.8149 7.78711 14.2812 8.21866 14.2812 8.97266C14.2812 9.72666 13.8149 10.1699 13.0059 10.1699H11.9316V7.78711ZM15.6895 9.87305C15.7115 9.09705 16.4437 8.53125 17.4297 8.53125C18.4937 8.53125 19.1914 9.09789 19.1914 9.96289V12.9551H18.3262V12.2344H18.3047C18.0617 12.7004 17.5167 13 16.9297 13C16.0657 13 15.4668 12.4791 15.4668 11.7031C15.4668 10.9381 16.0559 10.4947 17.1309 10.4277L18.2949 10.3496V10.0176C18.2949 9.52958 17.9823 9.26367 17.4062 9.26367C16.9403 9.26367 16.5982 9.50705 16.5312 9.87305H15.6895ZM19.5742 8.58789L21.1484 12.9668L21.0703 13.2324C20.9263 13.6764 20.6932 13.8535 20.2832 13.8535C20.2415 13.8535 20.1802 13.8501 20.1241 13.8469L20.1241 13.8469C20.0767 13.8443 20.033 13.8418 20.0078 13.8418V14.5625C20.0638 14.5735 20.2943 14.584 20.3613 14.584C21.2703 14.584 21.7031 14.2295 22.0801 13.1875L23.709 8.58789H22.7656L21.6699 12.1348H21.6465L20.5508 8.58789H19.5742ZM18.2949 11.3145V10.9805L17.2637 11.0469C16.6757 11.0799 16.377 11.3027 16.377 11.6797C16.377 12.0457 16.6865 12.2773 17.1855 12.2773C17.8165 12.2773 18.293 11.8795 18.293 11.3145H18.2949Z" fill="#9B9B9B"/>
</svg>
