<svg width="28" height="20" viewBox="0 0 28 20" fill="none" xmlns="http://www.w3.org/2000/svg">
    <path fill-rule="evenodd" clip-rule="evenodd" d="M0 3C0 1.35547 1.35547 0 3 0H25C26.6445 0 28 1.35547 28 3V17C28 18.6445 26.6445 20 25 20H3C1.35547 20 0 18.6445 0 17V3ZM25 2H3C2.43359 2 2 2.43359 2 3V17C2 17.5664 2.43359 18 3 18H25C25.5664 18 26 17.5664 26 17V3C26 2.43359 25.5664 2 25 2ZM17.4062 6.375C15.4805 6.375 14.4688 7.32422 14.4688 8.53125C14.4688 9.8006 15.3378 10.2287 16.0637 10.5863C16.5843 10.8428 17.0312 11.063 17.0312 11.5312C17.0312 11.7227 16.8711 12.1562 15.8125 12.1562C14.7539 12.1562 14.0625 11.7812 14.0625 11.7812L13.75 13.2188C13.75 13.2188 14.4062 13.625 15.7188 13.625C17.0312 13.625 18.875 12.6172 18.875 11.1562C18.875 10.1016 17.9525 9.6375 17.2145 9.26625C16.7225 9.01875 16.3125 8.8125 16.3125 8.5C16.3125 8.10156 16.6523 7.78125 17.5625 7.78125C18.1562 7.78125 18.8125 8.25 18.8125 8.25L19.125 6.71875C19.125 6.71875 18.2539 6.375 17.4062 6.375ZM7.5 11.4375L9.1875 6.5H11.1562L8.34375 13.4062H6.34375L4.875 7.8125C4.875 7.8125 6.42188 8.60938 7.375 10.75C7.41406 11.0117 7.5 11.4375 7.5 11.4375ZM11.875 6.5L10.7812 13.4062H12.625L13.7188 6.5H11.875ZM18.8125 13.4062L21.8125 6.5H23.75L25.1562 13.4062H23.5L23.3125 12.4375H21L20.625 13.4062H18.8125ZM2.84375 6.53125C2.84375 6.53125 6.44141 7.63281 7.28125 10.3438L6.65625 7.21875C6.65625 7.21875 6.38281 6.53125 5.65625 6.53125H2.84375ZM23.0312 11.0938L22.5 8.5L21.5312 11.0938H23.0312Z" fill="#9B9B9B"/>
</svg>
