<svg width="28" height="20" viewBox="0 0 28 20" fill="none" xmlns="http://www.w3.org/2000/svg">
    <path fill-rule="evenodd" clip-rule="evenodd" d="M3 0C1.35547 0 0 1.35547 0 3V17C0 18.6445 1.35547 20 3 20H25C26.6445 20 28 18.6445 28 17V3C28 1.35547 26.6445 0 25 0H3ZM3 2H25C25.5664 2 26 2.43359 26 3V17C26 17.5664 25.5664 18 25 18H3C2.43359 18 2 17.5664 2 17V3C2 2.43359 2.43359 2 3 2ZM3 10C3 6.14453 6.14453 3 10 3C11.4844 3 12.8633 3.45312 14 4.25C15.1328 3.45703 16.5117 3 18 3C21.8555 3 25 6.14453 25 10C25 13.8555 21.8555 17 18 17C16.5117 17 15.1328 16.543 14 15.75C12.8633 16.5469 11.4844 17 10 17C6.14453 17 3 13.8555 3 10ZM10 5C11.2812 5 12.4297 5.49609 13.3125 6.28125C12.9023 6.79297 12.5664 7.37109 12.3438 8H14.5625C14.7031 8.32031 14.8359 8.65234 14.9062 9H12.0938C12.0391 9.32422 12 9.65625 12 10C12 10.3438 12.0391 10.6758 12.0938 11H14.9062C14.8359 11.3477 14.7031 11.6797 14.5625 12H12.3438C12.5664 12.6289 12.9023 13.207 13.3125 13.7188C12.4297 14.5039 11.2812 15 10 15C7.22656 15 5 12.7734 5 10C5 7.22656 7.22656 5 10 5ZM23 10C23 7.22656 20.7734 5 18 5C17.0859 5 16.2383 5.25781 15.5 5.6875C16.4414 6.87891 17 8.37109 17 10C17 11.6289 16.4414 13.1211 15.5 14.3125C16.2383 14.7422 17.0859 15 18 15C20.7734 15 23 12.7734 23 10Z" fill="#9B9B9B"/>
</svg>
