<svg width="29" height="27" viewBox="0 0 29 27" fill="none" xmlns="http://www.w3.org/2000/svg">
    <path fill-rule="evenodd" clip-rule="evenodd" d="M13.5839 2.04124L14.5 0L15.4161 2.04124L18.7015 9.24742L26.7255 10.0825L29 10.3299L27.2941 11.8144L21.3235 17.1031L22.9978 24.8351L23.4717 27L21.4815 25.8866L14.5 21.9278L7.51852 25.8866L5.52832 27L6.00218 24.8351L7.67647 17.1031L1.70588 11.8144L0 10.3299L2.27451 10.0825L10.2985 9.24742L13.5839 2.04124ZM17.0904 10.5773L14.5 4.85567L11.9096 10.5773L11.6569 11.1031L11.0882 11.1649L4.73856 11.8144L9.47712 15.9897L9.91939 16.3918L9.79303 16.9485L8.46623 23.0412L13.9946 19.9485L14.5 19.6392L15.0054 19.9485L20.5338 23.0412L19.207 16.9485L19.0806 16.3918L19.5229 15.9897L24.2614 11.8144L17.9118 11.1649L17.3431 11.1031L17.0904 10.5773Z" fill="white"/>
</svg>
