<svg width="22" height="26" viewBox="0 0 22 26" fill="none" xmlns="http://www.w3.org/2000/svg">
    <path fill-rule="evenodd" clip-rule="evenodd" d="M15.8438 0C14.2031 0 12.5469 0.851563 11.4375 2.15625V2.1875C10.6484 3.16797 9.79297 4.71484 10.0625 6.5C10.0013 6.4759 9.96741 6.46675 9.93321 6.45753C9.89537 6.44733 9.85717 6.43703 9.78125 6.40625C9.08984 6.125 8.23438 5.8125 7.21875 5.8125C3.23828 5.8125 0.21875 9.41797 0.21875 14.1562C0.21875 17.2227 1.25 20.0977 2.625 22.25C3.3125 23.3281 4.09375 24.2148 4.90625 24.875C5.71875 25.5352 6.57031 26 7.53125 26C8.47796 26 9.1896 25.6853 9.72593 25.4481L9.72595 25.4481L9.75 25.4375L9.81159 25.4102C10.3217 25.1842 10.7375 25 11.5 25C12.1495 25 12.5088 25.1612 12.9792 25.3724L12.9796 25.3726C13.0268 25.3937 13.0752 25.4154 13.125 25.4375C13.6719 25.6797 14.418 26 15.4062 26C16.4766 26 17.3867 25.4766 18.125 24.8125C18.8633 24.1484 19.4844 23.293 20 22.4688C20.5156 21.6445 20.9219 20.8359 21.2188 20.1875C21.3672 19.8633 21.4766 19.5938 21.5625 19.375C21.5852 19.3172 21.6049 19.2703 21.6227 19.228L21.6227 19.2279L21.6227 19.2279C21.6722 19.1101 21.7069 19.0277 21.75 18.8438L21.9375 18.0312L21.1875 17.6875C21.0117 17.6094 20.3125 17.2617 19.6875 16.625C19.0625 15.9883 18.5312 15.1172 18.5312 13.7812C18.5312 12.4883 19.0273 11.6211 19.5625 11C19.8281 10.6914 20.1055 10.4375 20.3125 10.2812C20.386 10.2268 20.4482 10.1913 20.5002 10.1616C20.5229 10.1487 20.5436 10.1368 20.5625 10.125C20.5891 10.1084 20.6023 10.1009 20.6167 10.0928L20.6168 10.0928L20.6168 10.0928C20.6363 10.0817 20.6582 10.0694 20.7188 10.0312L21.5625 9.5L21 8.65625C19.3672 6.14453 16.7539 5.8125 15.7188 5.8125C15.4059 5.8125 15.1527 5.88371 14.8955 5.95604L14.8955 5.95604C14.7576 5.9948 14.6187 6.03388 14.4688 6.0625C14.5666 5.97096 14.6759 5.89344 14.7844 5.81656C14.9443 5.70317 15.1024 5.59114 15.2188 5.4375C15.2207 5.43555 15.2197 5.42871 15.2188 5.42188C15.2178 5.41504 15.2168 5.4082 15.2188 5.40625C15.2228 5.40219 15.2269 5.3986 15.2308 5.39515L15.2308 5.39514L15.2308 5.39513C15.2381 5.38864 15.2449 5.38265 15.25 5.375H15.2812C16.3477 4.18359 16.9375 2.58203 16.8438 0.9375L16.7812 0H15.8438ZM14.6562 2.3125C14.4844 2.97266 14.2031 3.60156 13.75 4.09375L13.6875 4.15625C13.3047 4.67188 12.7148 5.05469 12.125 5.28125C12.2891 4.62891 12.5742 3.96875 12.9688 3.46875C12.9727 3.46289 12.9785 3.45801 12.9844 3.45313C12.9902 3.44824 12.9961 3.44336 13 3.4375C13.4375 2.9375 14.043 2.5625 14.6562 2.3125ZM9.03125 8.28125C8.39062 8.02344 7.77734 7.8125 7.21875 7.8125C4.41797 7.8125 2.21875 10.2148 2.21875 14.1562C2.21875 16.7617 3.12891 19.3047 4.3125 21.1562C4.90234 22.082 5.55859 22.8242 6.15625 23.3125C6.75391 23.8008 7.28516 24 7.53125 24C8.01714 24 8.31572 23.8682 8.83883 23.6373C8.87085 23.6231 8.90371 23.6086 8.9375 23.5938C9.52344 23.3359 10.3633 23 11.5 23C12.582 23 13.3672 23.3438 13.9375 23.5938C13.9605 23.6038 13.9831 23.6138 14.0053 23.6235C14.535 23.8561 14.8627 24 15.4062 24C15.7812 24 16.2539 23.7852 16.7812 23.3125C17.3086 22.8398 17.8594 22.1328 18.3125 21.4062C18.7656 20.6797 19.1367 19.9297 19.4062 19.3438C19.447 19.2554 19.4747 19.1854 19.5014 19.1178C19.5207 19.0689 19.5395 19.0212 19.5625 18.9688C19.4907 18.9275 19.4213 18.8895 19.3528 18.8519C19.0188 18.6689 18.707 18.498 18.25 18.0312C17.3633 17.1211 16.5312 15.6875 16.5312 13.7812C16.5312 11.9453 17.3008 10.5703 18.0625 9.6875C18.2144 9.51223 18.3466 9.39812 18.4837 9.27984C18.53 9.23995 18.5767 9.19959 18.625 9.15625C17.5352 8.14453 16.2422 7.8125 15.7188 7.8125C14.9336 7.8125 14.1289 8.02344 13.375 8.28125C13.2063 8.33895 13.043 8.40057 12.8817 8.46146C12.3222 8.67261 11.786 8.875 11.125 8.875C10.4216 8.875 9.89253 8.64789 9.37055 8.42384C9.25768 8.37539 9.14514 8.32709 9.03125 8.28125Z" fill="white"/>
</svg>
