<svg width="26" height="25" viewBox="0 0 26 25" fill="none" xmlns="http://www.w3.org/2000/svg">
    <path fill-rule="evenodd" clip-rule="evenodd" d="M23.1367 1.21897C23.418 1.1096 23.7344 1.01194 24.0703 0.996315C24.4063 0.98069 24.7695 1.0471 25.1367 1.26585C25.5 1.48069 25.8008 1.88303 25.918 2.31272C26.0352 2.74241 26.0078 3.18382 25.9024 3.65647L22.168 22.7854L22.1328 22.8752C22.1328 22.8752 21.9219 23.4338 21.3789 23.8713C20.8399 24.3049 19.8203 24.551 18.8125 24.1096L18.7031 24.0627L13.8711 20.3557L10.9883 22.9807L10.9531 23.008C10.9531 23.008 10.332 23.4885 9.55861 23.2541L9.55137 23.253C9.50514 23.2459 9.47859 23.2418 9.44142 23.2307C9.43635 23.229 9.43128 23.2258 9.42589 23.2225C9.41883 23.2181 9.41122 23.2134 9.40236 23.2112L9.4122 23.2134C9.40489 23.2109 9.39777 23.2076 9.39064 23.2033C9.32814 23.1799 9.26564 23.1526 9.20705 23.1174C9.05861 23.0237 8.93361 22.9065 8.82814 22.7658C8.60939 22.4924 8.43361 22.133 8.25392 21.5588C8.06186 20.9531 7.4864 19.0714 7.03244 17.587C6.76624 16.7166 6.54181 15.9828 6.46095 15.7229L1.57814 14.0783H1.57033C1.57033 14.0783 1.24611 13.9651 0.906266 13.7229C0.570329 13.4846 0.101579 13.051 0.0117353 12.3283C-0.0429527 11.9026 0.105485 11.4885 0.289079 11.219C0.472672 10.9494 0.68361 10.7776 0.875016 10.6526C1.17252 10.448 1.46018 10.332 1.56638 10.2928C1.91698 10.145 6.9421 8.02645 12.0508 5.87522C13.3023 5.34808 14.5581 4.8192 15.7519 4.31648C17.088 3.75378 18.3464 3.22385 19.4336 2.76585C19.8515 2.59061 20.2404 2.42744 20.5972 2.27772C21.9984 1.68986 22.9056 1.30926 23.1328 1.21897H23.1367ZM23.968 3.08848C23.9678 3.07736 23.9676 3.06516 23.9688 3.0471C23.9439 3.0471 23.9366 3.0471 23.9302 3.04948C23.9215 3.05271 23.9145 3.06034 23.8672 3.07835C23.7813 3.1135 22.2617 3.74632 20.207 4.6096C18.485 5.3364 16.3294 6.24429 14.1151 7.1769C13.6874 7.35704 13.2575 7.53811 12.8281 7.71897C7.53127 9.94944 2.32033 12.1448 2.32033 12.1448L2.28908 12.1565L2.25783 12.1721C2.25783 12.1721 2.23049 12.1838 2.22658 12.1838C2.22853 12.1838 2.23146 12.1848 2.23439 12.1858C2.23732 12.1867 2.24025 12.1877 2.2422 12.1877V12.1916L8.07814 14.1565L8.08205 14.176L20.2578 6.63303C20.2578 6.63303 20.8867 6.31272 20.8594 6.76585C20.8594 6.76585 20.9922 6.84397 20.5938 7.21507C20.1953 7.58616 10.9375 16.2151 10.9375 16.2151L10.1875 21.0041L13.7578 17.7502L19.668 22.2815C19.9922 22.4104 20.0547 22.3713 20.1328 22.3088C20.1993 22.2564 20.2282 22.2039 20.2447 22.1739C20.2466 22.1704 20.2484 22.1671 20.25 22.1643L23.9492 3.2346V3.22288C23.9687 3.13679 23.9684 3.11585 23.968 3.08848Z" fill="#9B9B9B"/>
</svg>
