<svg width="147" height="79" viewBox="0 0 147 79" fill="none" xmlns="http://www.w3.org/2000/svg">
    <path fill-rule="evenodd" clip-rule="evenodd" d="M74.1209 18.483H80.7871V32.0517C81.5642 30.8467 82.2789 29.6224 82.9312 28.3787C90.2995 14.2774 82.4097 7.04727 74.1209 6.67953V0.00439453C78.3556 0.133663 82.5456 1.49989 85.891 4.12537C87.7009 5.5418 89.2085 7.30664 90.3248 9.31561C91.441 11.3246 92.1433 13.5369 92.3901 15.8219C93.0319 21.2578 91.3358 26.6916 88.8419 31.4678C86.0938 36.7232 82.3673 41.5663 78.2998 45.8723L74.1209 50.2986V18.483Z" fill="#808285"/>
    <path fill-rule="evenodd" clip-rule="evenodd" d="M68.6071 45.8723C64.5396 41.5664 60.8064 36.7233 58.0673 31.4678C55.5711 26.6916 53.875 21.2579 54.5191 15.822C54.7648 13.5361 55.4666 11.3227 56.5829 9.31287C57.6992 7.30303 59.2074 5.53756 61.0182 4.12098C64.3613 1.4955 68.5603 0.129268 72.7883 0C72.7883 6.39431 70.5595 5.89952 66.1421 8.66096C63.0865 10.571 60.9513 13.8428 61.0538 18.4786H72.7883C72.7835 20.2458 72.0795 21.9392 70.8299 23.1887C69.5804 24.4383 67.8869 25.1424 66.1198 25.1471H62.5025C62.934 26.2491 63.4258 27.3265 63.9757 28.3743C66.2379 32.7026 69.356 36.8436 72.7883 40.5746V50.2942L68.6071 45.8723Z" fill="#00AEEF"/>
    <path d="M15.9806 65.5044V55.0109H22.2726V56.1381H17.2513V59.6838H21.8012V60.811H17.2513V65.5044H15.9806ZM23.5689 65.5044H22.2367L26.0898 55.0109H27.4015L31.2546 65.5044H29.9224L26.7867 56.671H26.7047L23.5689 65.5044ZM24.0608 61.4054H29.4305V62.5326H24.0608V61.4054ZM38.6277 57.6343C38.5663 57.115 38.3169 56.712 37.8797 56.425C37.4424 56.1381 36.9061 55.9946 36.2708 55.9946C35.8062 55.9946 35.3998 56.0698 35.0513 56.2201C34.7063 56.3704 34.4365 56.577 34.2418 56.8401C34.0505 57.1031 33.9548 57.402 33.9548 57.7367C33.9548 58.0168 34.0215 58.2577 34.1547 58.4592C34.2913 58.6573 34.4655 58.823 34.6773 58.9562C34.8891 59.086 35.1111 59.1936 35.3434 59.279C35.5757 59.361 35.7892 59.4276 35.9839 59.4788L37.0496 59.7658C37.3229 59.8375 37.6269 59.9365 37.9616 60.0629C38.2998 60.1893 38.6226 60.3618 38.93 60.5804C39.2409 60.7956 39.4971 61.0723 39.6986 61.4105C39.9001 61.7487 40.0009 62.1637 40.0009 62.6556C40.0009 63.2226 39.8523 63.735 39.5551 64.1927C39.2614 64.6504 38.831 65.0142 38.264 65.2841C37.7003 65.5539 37.0155 65.6889 36.2093 65.6889C35.4578 65.6889 34.8071 65.5676 34.2571 65.3251C33.7106 65.0825 33.2802 64.7444 32.966 64.3106C32.6551 63.8767 32.4792 63.3729 32.4382 62.799H33.7499C33.7841 63.1953 33.9173 63.5232 34.1495 63.7828C34.3852 64.039 34.6824 64.2303 35.0411 64.3567C35.4032 64.4796 35.7926 64.5411 36.2093 64.5411C36.6944 64.5411 37.1299 64.4626 37.5159 64.3054C37.9019 64.1449 38.2076 63.9229 38.433 63.6393C38.6585 63.3524 38.7712 63.0176 38.7712 62.6351C38.7712 62.2867 38.6739 62.0031 38.4792 61.7845C38.2844 61.5659 38.0283 61.3883 37.7106 61.2517C37.3929 61.115 37.0496 60.9955 36.6807 60.893L35.3895 60.5241C34.5697 60.2884 33.9207 59.9519 33.4425 59.5147C32.9642 59.0775 32.7251 58.5053 32.7251 57.7982C32.7251 57.2107 32.884 56.6983 33.2016 56.2611C33.5227 55.8204 33.9531 55.4788 34.4928 55.2363C35.036 54.9904 35.6423 54.8674 36.3118 54.8674C36.9881 54.8674 37.5893 54.9887 38.1154 55.2312C38.6414 55.4703 39.0581 55.7982 39.3656 56.215C39.6764 56.6317 39.8404 57.1048 39.8574 57.6343H38.6277ZM41.5163 56.1381V55.0109H49.3864V56.1381H46.0867V65.5044H44.816V56.1381H41.5163ZM51.3475 65.5044V55.0109H57.6805V56.1381H52.6182V59.6838H57.3526V60.811H52.6182V64.3772H57.7625V65.5044H51.3475ZM59.9709 65.5044V55.0109H63.5165C64.3363 55.0109 65.0093 55.1509 65.5353 55.431C66.0614 55.7077 66.4508 56.0886 66.7035 56.5736C66.9563 57.0587 67.0827 57.6103 67.0827 58.2286C67.0827 58.8469 66.9563 59.3951 66.7035 59.8734C66.4508 60.3516 66.0631 60.7273 65.5404 61.0006C65.0178 61.2704 64.35 61.4054 63.537 61.4054H60.6677V60.2576H63.496C64.0562 60.2576 64.5071 60.1757 64.8487 60.0117C65.1937 59.8477 65.4431 59.6155 65.5968 59.3149C65.7539 59.0108 65.8325 58.6488 65.8325 58.2286C65.8325 57.8085 65.7539 57.4413 65.5968 57.127C65.4397 56.8127 65.1886 56.5702 64.8436 56.3994C64.4986 56.2252 64.0426 56.1381 63.4756 56.1381H61.2416V65.5044H59.9709ZM64.9102 60.7905L67.4926 65.5044H66.0169L63.4756 60.7905H64.9102ZM76.4964 65.5044H73.2581V55.0109H76.6398C77.6578 55.0109 78.5288 55.221 79.253 55.6411C79.9771 56.0578 80.5322 56.6573 80.9182 57.4396C81.3042 58.2184 81.4972 59.1509 81.4972 60.2371C81.4972 61.3302 81.3025 62.2713 80.9131 63.0603C80.5237 63.846 79.9566 64.4506 79.212 64.8742C78.4673 65.2943 77.5621 65.5044 76.4964 65.5044ZM74.5288 64.3772H76.4144C77.282 64.3772 78.0011 64.2098 78.5715 63.875C79.142 63.5403 79.5672 63.0638 79.8473 62.4455C80.1274 61.8272 80.2675 61.0911 80.2675 60.2371C80.2675 59.39 80.1291 58.6607 79.8525 58.0493C79.5758 57.4344 79.1625 56.963 78.6125 56.6351C78.0625 56.3038 77.3777 56.1381 76.5579 56.1381H74.5288V64.3772ZM83.6287 65.5044V55.0109H87.1743C87.9942 55.0109 88.6671 55.1509 89.1931 55.431C89.7192 55.7077 90.1086 56.0886 90.3613 56.5736C90.6141 57.0587 90.7405 57.6103 90.7405 58.2286C90.7405 58.8469 90.6141 59.3951 90.3613 59.8734C90.1086 60.3516 89.7209 60.7273 89.1982 61.0006C88.6756 61.2704 88.0078 61.4054 87.1948 61.4054H84.3255V60.2576H87.1539C87.7141 60.2576 88.1649 60.1757 88.5065 60.0117C88.8515 59.8477 89.1009 59.6155 89.2546 59.3149C89.4117 59.0108 89.4903 58.6488 89.4903 58.2286C89.4903 57.8085 89.4117 57.4413 89.2546 57.127C89.0975 56.8127 88.8464 56.5702 88.5014 56.3994C88.1564 56.2252 87.7004 56.1381 87.1334 56.1381H84.8994V65.5044H83.6287ZM88.568 60.7905L91.1504 65.5044H89.6748L87.1334 60.7905H88.568ZM94.1286 55.0109V65.5044H92.8579V55.0109H94.1286ZM97.1068 55.0109L100.222 63.8443H100.345L103.46 55.0109H104.792L100.939 65.5044H99.6277L95.7746 55.0109H97.1068ZM106.427 65.5044V55.0109H112.76V56.1381H107.698V59.6838H112.432V60.811H107.698V64.3772H112.842V65.5044H106.427ZM115.05 65.5044V55.0109H118.596C119.416 55.0109 120.089 55.1509 120.615 55.431C121.141 55.7077 121.53 56.0886 121.783 56.5736C122.036 57.0587 122.162 57.6103 122.162 58.2286C122.162 58.8469 122.036 59.3951 121.783 59.8734C121.53 60.3516 121.143 60.7273 120.62 61.0006C120.097 61.2704 119.429 61.4054 118.616 61.4054H115.747V60.2576H118.575C119.136 60.2576 119.587 60.1757 119.928 60.0117C120.273 59.8477 120.523 59.6155 120.676 59.3149C120.833 59.0108 120.912 58.6488 120.912 58.2286C120.912 57.8085 120.833 57.4413 120.676 57.127C120.519 56.8127 120.268 56.5702 119.923 56.3994C119.578 56.2252 119.122 56.1381 118.555 56.1381H116.321V65.5044H115.05ZM119.99 60.7905L122.572 65.5044H121.096L118.555 60.7905H119.99ZM130.018 57.6343C129.957 57.115 129.707 56.712 129.27 56.425C128.833 56.1381 128.297 55.9946 127.661 55.9946C127.197 55.9946 126.79 56.0698 126.442 56.2201C126.097 56.3704 125.827 56.577 125.632 56.8401C125.441 57.1031 125.345 57.402 125.345 57.7367C125.345 58.0168 125.412 58.2577 125.545 58.4592C125.682 58.6573 125.856 58.823 126.068 58.9562C126.28 59.086 126.502 59.1936 126.734 59.279C126.966 59.361 127.18 59.4276 127.374 59.4788L128.44 59.7658C128.713 59.8375 129.017 59.9365 129.352 60.0629C129.69 60.1893 130.013 60.3618 130.32 60.5804C130.631 60.7956 130.888 61.0723 131.089 61.4105C131.291 61.7487 131.391 62.1637 131.391 62.6556C131.391 63.2226 131.243 63.735 130.946 64.1927C130.652 64.6504 130.221 65.0142 129.654 65.2841C129.091 65.5539 128.406 65.6889 127.6 65.6889C126.848 65.6889 126.198 65.5676 125.648 65.3251C125.101 65.0825 124.671 64.7444 124.356 64.3106C124.046 63.8767 123.87 63.3729 123.829 62.799H125.14C125.174 63.1953 125.308 63.5232 125.54 63.7828C125.776 64.039 126.073 64.2303 126.432 64.3567C126.794 64.4796 127.183 64.5411 127.6 64.5411C128.085 64.5411 128.52 64.4626 128.906 64.3054C129.292 64.1449 129.598 63.9229 129.823 63.6393C130.049 63.3524 130.162 63.0176 130.162 62.6351C130.162 62.2867 130.064 62.0031 129.87 61.7845C129.675 61.5659 129.419 61.3883 129.101 61.2517C128.783 61.115 128.44 60.9955 128.071 60.893L126.78 60.5241C125.96 60.2884 125.311 59.9519 124.833 59.5147C124.355 59.0775 124.116 58.5053 124.116 57.7982C124.116 57.2107 124.274 56.6983 124.592 56.2611C124.913 55.8204 125.344 55.4788 125.883 55.2363C126.426 54.9904 127.033 54.8674 127.702 54.8674C128.379 54.8674 128.98 54.9887 129.506 55.2312C130.032 55.4703 130.449 55.7982 130.756 56.215C131.067 56.6317 131.231 57.1048 131.248 57.6343H130.018Z" fill="#00AEEF"/>
    <path d="M32.7045 75.7485H30.5502V68.7673H32.8C33.4772 68.7673 34.0567 68.907 34.5385 69.1865C35.0203 69.4638 35.3896 69.8626 35.6464 70.383C35.9032 70.9012 36.0316 71.5216 36.0316 72.2443C36.0316 72.9715 35.902 73.5976 35.643 74.1225C35.3839 74.6452 35.0066 75.0475 34.5112 75.3292C34.0158 75.6088 33.4136 75.7485 32.7045 75.7485ZM31.3956 74.9986H32.65C33.2272 74.9986 33.7056 74.8872 34.0851 74.6645C34.4646 74.4418 34.7476 74.1248 34.9339 73.7135C35.1203 73.3021 35.2134 72.8124 35.2134 72.2443C35.2134 71.6807 35.1214 71.1955 34.9373 70.7887C34.7533 70.3796 34.4783 70.066 34.1124 69.8479C33.7465 69.6274 33.2909 69.5172 32.7454 69.5172H31.3956V74.9986ZM37.4496 75.7485V68.7673H41.6629V69.5172H38.295V71.8761H41.4448V72.626H38.295V74.9986H41.7175V75.7485H37.4496ZM43.1867 75.7485V68.7673H44.0321V74.9986H47.2773V75.7485H43.1867ZM49.4317 68.7673V75.7485H48.5863V68.7673H49.4317ZM51.4131 68.7673L53.4856 74.6441H53.5674L55.64 68.7673H56.5263L53.9629 75.7485H53.0902L50.5268 68.7673H51.4131ZM57.6137 75.7485V68.7673H61.827V69.5172H58.4591V71.8761H61.6089V72.626H58.4591V74.9986H61.8816V75.7485H57.6137ZM63.3508 75.7485V68.7673H65.7097C66.2551 68.7673 66.7028 68.8604 67.0528 69.0468C67.4027 69.2309 67.6618 69.4842 67.83 69.8069C67.9981 70.1296 68.0822 70.4967 68.0822 70.908C68.0822 71.3193 67.9981 71.6841 67.83 72.0022C67.6618 72.3204 67.4039 72.5704 67.0562 72.7522C66.7085 72.9317 66.2642 73.0215 65.7233 73.0215H63.8144V72.2579H65.6961C66.0687 72.2579 66.3687 72.2034 66.596 72.0943C66.8255 71.9852 66.9914 71.8307 67.0937 71.6307C67.1982 71.4284 67.2505 71.1875 67.2505 70.908C67.2505 70.6285 67.1982 70.3842 67.0937 70.1751C66.9891 69.966 66.8221 69.8047 66.5926 69.691C66.363 69.5751 66.0597 69.5172 65.6824 69.5172H64.1962V75.7485H63.3508ZM66.6369 72.6124L68.3549 75.7485H67.3732L65.6824 72.6124H66.6369ZM68.6566 68.7673H69.6247L71.5609 72.0261H71.6428L73.579 68.7673H74.5471L72.0245 72.8715V75.7485H71.1792V72.8715L68.6566 68.7673ZM82.1581 70.5126C82.1172 70.1671 81.9513 69.899 81.6605 69.7081C81.3696 69.5172 81.0128 69.4217 80.5901 69.4217C80.281 69.4217 80.0106 69.4717 79.7788 69.5717C79.5493 69.6717 79.3697 69.8092 79.2402 69.9842C79.1129 70.1592 79.0493 70.358 79.0493 70.5807C79.0493 70.7671 79.0936 70.9273 79.1822 71.0614C79.2731 71.1932 79.389 71.3034 79.5299 71.3921C79.6708 71.4784 79.8186 71.55 79.9731 71.6068C80.1276 71.6613 80.2697 71.7057 80.3992 71.7398L81.1082 71.9306C81.29 71.9784 81.4923 72.0443 81.715 72.1284C81.94 72.2124 82.1547 72.3272 82.3593 72.4726C82.5661 72.6158 82.7365 72.7999 82.8706 73.0249C83.0047 73.2499 83.0717 73.526 83.0717 73.8532C83.0717 74.2305 82.9729 74.5714 82.7751 74.8759C82.5797 75.1804 82.2934 75.4224 81.9161 75.602C81.5411 75.7815 81.0855 75.8713 80.5492 75.8713C80.0492 75.8713 79.6163 75.7906 79.2504 75.6292C78.8868 75.4679 78.6005 75.2429 78.3914 74.9543C78.1846 74.6657 78.0675 74.3305 78.0403 73.9487H78.9129C78.9357 74.2123 79.0243 74.4305 79.1788 74.6032C79.3356 74.7736 79.5333 74.9009 79.772 74.985C80.0129 75.0668 80.2719 75.1077 80.5492 75.1077C80.8719 75.1077 81.1616 75.0554 81.4184 74.9509C81.6752 74.8441 81.8786 74.6963 82.0286 74.5077C82.1786 74.3168 82.2536 74.0941 82.2536 73.8396C82.2536 73.6078 82.1888 73.4192 82.0593 73.2737C81.9298 73.1283 81.7593 73.0101 81.548 72.9192C81.3366 72.8283 81.1082 72.7488 80.8628 72.6806L80.0038 72.4352C79.4584 72.2783 79.0266 72.0545 78.7084 71.7636C78.3903 71.4727 78.2312 71.0921 78.2312 70.6217C78.2312 70.2308 78.3368 69.8899 78.5482 69.599C78.7618 69.3058 79.0482 69.0786 79.4072 68.9172C79.7686 68.7536 80.1719 68.6718 80.6174 68.6718C81.0673 68.6718 81.4673 68.7525 81.8173 68.9138C82.1672 69.0729 82.4445 69.2911 82.649 69.5683C82.8558 69.8456 82.9649 70.1603 82.9763 70.5126H82.1581ZM84.4617 75.7485V68.7673H88.675V69.5172H85.3071V71.8761H88.4568V72.626H85.3071V74.9986H88.7295V75.7485H84.4617ZM90.1987 75.7485V68.7673H92.5576C93.103 68.7673 93.5507 68.8604 93.9007 69.0468C94.2507 69.2309 94.5098 69.4842 94.6779 69.8069C94.8461 70.1296 94.9302 70.4967 94.9302 70.908C94.9302 71.3193 94.8461 71.6841 94.6779 72.0022C94.5098 72.3204 94.2518 72.5704 93.9041 72.7522C93.5564 72.9317 93.1121 73.0215 92.5713 73.0215H90.6623V72.2579H92.544C92.9167 72.2579 93.2167 72.2034 93.4439 72.0943C93.6735 71.9852 93.8394 71.8307 93.9416 71.6307C94.0462 71.4284 94.0984 71.1875 94.0984 70.908C94.0984 70.6285 94.0462 70.3842 93.9416 70.1751C93.8371 69.966 93.67 69.8047 93.4405 69.691C93.211 69.5751 92.9076 69.5172 92.5304 69.5172H91.0441V75.7485H90.1987ZM93.4848 72.6124L95.2029 75.7485H94.2211L92.5304 72.6124H93.4848ZM96.4659 68.7673L98.5384 74.6441H98.6202L100.693 68.7673H101.579L99.0157 75.7485H98.143L95.5796 68.7673H96.4659ZM103.512 68.7673V75.7485H102.667V68.7673H103.512ZM110.825 70.9489H109.979C109.929 70.7057 109.842 70.4921 109.717 70.308C109.594 70.124 109.444 69.9694 109.267 69.8444C109.092 69.7172 108.898 69.6217 108.684 69.5581C108.47 69.4945 108.248 69.4627 108.016 69.4627C107.593 69.4627 107.21 69.5695 106.867 69.7831C106.526 69.9967 106.255 70.3115 106.052 70.7273C105.852 71.1432 105.752 71.6534 105.752 72.2579C105.752 72.8624 105.852 73.3726 106.052 73.7885C106.255 74.2043 106.526 74.5191 106.867 74.7327C107.21 74.9463 107.593 75.0531 108.016 75.0531C108.248 75.0531 108.47 75.0213 108.684 74.9577C108.898 74.8941 109.092 74.7997 109.267 74.6748C109.444 74.5475 109.594 74.3918 109.717 74.2077C109.842 74.0214 109.929 73.8078 109.979 73.5669H110.825C110.761 73.9237 110.645 74.243 110.477 74.5248C110.309 74.8066 110.1 75.0463 109.85 75.244C109.6 75.4395 109.319 75.5883 109.008 75.6906C108.699 75.7928 108.368 75.844 108.016 75.844C107.42 75.844 106.891 75.6985 106.427 75.4077C105.964 75.1168 105.599 74.7032 105.333 74.1668C105.067 73.6305 104.934 72.9942 104.934 72.2579C104.934 71.5216 105.067 70.8853 105.333 70.3489C105.599 69.8126 105.964 69.399 106.427 69.1081C106.891 68.8172 107.42 68.6718 108.016 68.6718C108.368 68.6718 108.699 68.7229 109.008 68.8252C109.319 68.9275 109.6 69.0775 109.85 69.2752C110.1 69.4706 110.309 69.7092 110.477 69.991C110.645 70.2705 110.761 70.5898 110.825 70.9489ZM112.191 75.7485V68.7673H116.404V69.5172H113.036V71.8761H116.186V72.626H113.036V74.9986H116.459V75.7485H112.191Z" fill="#00AEEF"/>
    <path fill-rule="evenodd" clip-rule="evenodd" d="M27.4761 71.8745L0 72.3827L27.4761 72.8886V71.8745Z" fill="#00AEEF"/>
    <path fill-rule="evenodd" clip-rule="evenodd" d="M119.524 71.8745L147 72.3827L119.524 72.8886V71.8745Z" fill="#00AEEF"/>
</svg>
