<svg width="1440" height="1263" viewBox="0 0 1440 1263" fill="none" xmlns="http://www.w3.org/2000/svg">
    <path opacity="0.30385" d="M-41.5112 -98.8239C251.359 -534.926 587.373 -746.298 931.031 -710.927C973.963 -706.508 1004.04 -694.656 1023.72 -676.468C1043.38 -658.291 1052.7 -633.728 1054 -603.746C1055.31 -573.752 1048.58 -538.361 1036.16 -498.592C1023.74 -458.827 1005.64 -414.717 984.213 -367.29C964.538 -323.735 942.069 -277.396 918.634 -229.067C916.551 -224.771 914.46 -220.459 912.363 -216.132C886.676 -163.131 860.039 -107.859 834.825 -51.358C784.399 61.6407 739.649 179.582 719.549 294.155C699.453 408.707 694.164 534.588 691.38 662.817C690.81 689.054 690.345 715.389 689.88 741.745C688.072 844.217 686.258 947.017 678.252 1045.66C658.12 1293.71 598.846 1515.26 402.266 1638.97C303.944 1700.85 224.888 1712.92 159.062 1691.59C93.2129 1670.25 40.4758 1615.45 -5.10918 1543.3C-50.6909 1471.15 -89.0751 1381.73 -126.254 1291.26C-131.066 1279.55 -135.858 1267.82 -140.643 1256.11C-172.819 1177.36 -204.669 1099.41 -240.135 1033.01C-402.904 728.287 -334.382 337.279 -41.5112 -98.8239Z" stroke="white"/>
    <path opacity="0.9" d="M-42.0728 -97.0918C104.371 -315.156 215.879 -436.223 333.646 -498.404C451.372 -560.563 575.496 -563.952 747.419 -546.257C833.255 -537.422 876.734 -509.115 892.878 -464.865C900.973 -442.675 902.245 -416.362 898.407 -386.262C894.569 -356.165 885.629 -322.347 873.362 -285.184C858.345 -239.692 838.376 -189.285 816.727 -134.635C802.988 -99.9548 788.573 -63.5659 774.316 -25.6396C737.612 72.0033 702.008 179.722 681.904 294.323C662.52 404.815 651.486 522.467 640.385 640.829C639.976 645.185 639.568 649.543 639.158 653.9C627.63 776.682 615.697 899.976 593.981 1016.69C550.548 1250.13 468.02 1457.02 271.582 1580.64C173.258 1642.51 102.456 1658.17 48.997 1642.47C-4.44958 1626.77 -40.9233 1579.62 -70.3189 1514.92C-95.6058 1459.27 -115.565 1390.84 -136.604 1318.71C-140.018 1307.01 -143.461 1295.2 -146.96 1283.34C-172.002 1198.44 -199.893 1110.57 -240.671 1034.23C-403.312 729.743 -334.899 338.945 -42.0728 -97.0918Z" fill="white" stroke="white" stroke-width="2"/>
    <path opacity="0.30385" d="M-44.4266 -267.057C101.918 -484.973 311.197 -649.932 526.869 -755.99C742.555 -862.053 964.543 -909.164 1136.27 -891.489C1179.1 -887.081 1206.28 -872.854 1221.13 -850.651C1236.01 -828.42 1238.7 -797.949 1231.97 -760.682C1218.52 -686.127 1167.55 -585.155 1103.21 -470.8C1081.61 -432.406 1058.5 -392.511 1034.82 -351.617C988.01 -270.788 938.943 -186.06 894.763 -101.331C828.229 26.2694 772.704 154.008 752.588 268.677C732.472 383.343 740.797 523.187 758.41 672.234C766.757 742.875 777.194 815.606 787.687 888.724C788.265 892.753 788.843 896.783 789.421 900.814C800.493 978.006 811.501 1055.53 820.062 1131.4C837.187 1283.16 844.51 1428.25 822.993 1550.84C801.48 1673.41 751.159 1773.39 653.081 1835.11C554.983 1896.84 460.37 1896.78 371.01 1857.22C281.582 1817.64 197.379 1738.48 120.302 1641.95C-7.91637 1481.38 -116.195 1273.03 -195.888 1119.69C-212.009 1088.67 -226.961 1059.9 -240.671 1034.23C-321.985 882.002 -346.148 665.7 -313.344 432.885C-280.542 200.091 -190.796 -49.1031 -44.4266 -267.057Z" stroke="white" stroke-width="2"/>
    <path opacity="0.303083" d="M721 929C721 988.647 769.353 1037 829 1037C888.647 1037 937 988.647 937 929C937 869.353 888.647 821 829 821C769.353 821 721 869.353 721 929Z" stroke="white" stroke-width="2"/>
    <path opacity="0.303083" d="M735.926 929C735.926 950.351 748.245 965.456 766.068 975.25C783.904 985.052 807.208 989.5 829 989.5C850.741 989.5 865.841 982.797 875.513 971.933C885.194 961.059 889.5 945.943 889.5 929C889.5 923.914 889.912 918.155 890.348 912.072C890.641 907.97 890.945 903.72 891.141 899.43C891.628 888.737 891.447 877.714 888.807 867.769C886.171 857.836 881.086 848.993 871.764 842.624C862.432 836.248 848.799 832.312 829 832.312C789.405 832.312 766.18 845.765 752.83 864.508C739.456 883.283 735.926 907.454 735.926 929Z" stroke="white"/>
    <path opacity="0.303083" d="M751.5 918.026C751.5 935.123 761.315 947.222 775.535 955.072C789.769 962.931 808.372 966.5 825.774 966.5C843.125 966.5 855.161 961.127 862.866 952.431C870.581 943.724 874.019 931.614 874.019 918.026C874.019 913.941 874.348 909.31 874.696 904.423C874.931 901.13 875.174 897.72 875.33 894.282C875.719 885.699 875.574 876.862 873.468 868.892C871.366 860.935 867.314 853.858 859.888 848.761C852.454 843.657 841.583 840.5 825.774 840.5C794.161 840.5 775.636 851.29 764.99 866.305C754.32 881.354 751.5 900.735 751.5 918.026Z" stroke="white"/>
</svg>
